<?xml version="1.0" encoding="UTF-8" standalone="no"?>
<!-- Created with Inkscape (http://www.inkscape.org/) -->

<svg
   width="117.1817mm"
   height="103.2777mm"
   viewBox="0 0 117.1817 103.2777"
   version="1.1"
   id="svg1"
   xml:space="preserve"
   xmlns:inkscape="http://www.inkscape.org/namespaces/inkscape"
   xmlns:sodipodi="http://sodipodi.sourceforge.net/DTD/sodipodi-0.dtd"
   xmlns="http://www.w3.org/2000/svg"
   xmlns:svg="http://www.w3.org/2000/svg"><sodipodi:namedview
     id="namedview1"
     pagecolor="#ffffff"
     bordercolor="#000000"
     borderopacity="0.25"
     inkscape:showpageshadow="2"
     inkscape:pageopacity="0.0"
     inkscape:pagecheckerboard="0"
     inkscape:deskcolor="#d1d1d1"
     inkscape:document-units="mm"><inkscape:page
       x="1.0626866e-21"
       y="0"
       width="117.1817"
       height="103.2777"
       id="page2"
       margin="0"
       bleed="0" /></sodipodi:namedview><defs
     id="defs1" /><g
     inkscape:label="Layer 1"
     inkscape:groupmode="layer"
     id="layer1"
     transform="translate(368.14756,-86.308197)"><path
       style="opacity:1;fill:#1a1a1a"
       d="m -348.1715,189.39671 c -6.80343,-0.93844 -13.66672,-3.39281 -18.65313,-6.67052 l -1.32291,-0.86959 v -11.98495 -11.98494 l 1.75619,-0.11279 c 1.2043,-0.0773 1.83175,-0.01 1.99665,0.21474 0.13226,0.18015 0.45031,1.3991 0.70679,2.70879 1.73557,8.86264 6.34686,15.90021 12.3479,18.84489 3.36053,1.649 5.07397,2.02679 9.25392,2.04038 5.45937,0.0177 8.84819,-1.1466 12.05565,-4.1421 2.52397,-2.35719 3.87772,-5.21426 4.36343,-9.20897 0.64129,-5.27424 -0.97856,-10.20016 -4.85955,-14.77779 -2.39202,-2.82139 -4.69054,-4.79841 -11.77708,-10.12978 -3.10283,-2.33434 -6.92853,-5.35685 -8.50155,-6.7167 -6.63638,-5.73705 -10.35954,-11.11174 -12.08763,-17.44951 -0.65704,-2.40967 -0.7215,-3.05912 -0.72217,-7.27604 -6.8e-4,-4.29398 0.0518,-4.80194 0.7232,-6.99515 0.98192,-3.20771 2.73589,-6.495824 4.72898,-8.865283 1.90619,-2.266139 5.50814,-5.106842 8.04177,-6.342189 2.75002,-1.340857 6.97002,-2.645819 10.00163,-3.092832 2.52241,-0.37193 2.91689,-0.371479 4.21132,0.0048 1.84187,0.535447 3.79723,1.85918 4.72382,3.197927 0.68782,0.993767 1.93107,4.320928 1.70068,4.551321 -0.0578,0.05784 -0.91428,-0.03574 -1.90321,-0.207957 -4.99227,-0.869366 -10.34016,0.72451 -13.48166,4.01805 -4.28356,4.490863 -4.75228,11.760593 -1.15388,17.896243 1.50274,2.56234 6.41127,7.20661 12.2491,11.58967 2.89857,2.17626 6.47045,4.89841 7.9375,6.04922 10.69063,8.38617 15.08222,15.23905 16.34365,25.50353 0.35398,2.88037 0.0164,7.09306 -0.82822,10.3353 -1.76396,6.77133 -7.00183,13.06065 -13.64182,16.38028 -2.43836,1.21904 -6.07329,2.4363 -8.99583,3.01251 -3.0191,0.59524 -12.26218,0.88652 -15.21354,0.47942 z m 84.53437,-1.61591 c -3.2953,-0.31793 -6.92442,-1.50502 -9.7473,-3.18834 -4.8603,-2.89826 -9.54273,-8.47965 -16.4949,-19.66168 -1.24011,-1.99462 -8.46282,-13.49849 -10.9223,-17.39635 l -1.1269,-1.78594 -4.13763,-0.007 -4.13764,-0.007 -0.90692,-1.51385 c -2.26137,-3.77475 -6.37668,-8.25735 -11.10596,-12.09719 l -2.93283,-2.38125 -0.002,-13.62604 c -0.001,-7.49432 -0.12428,-15.23338 -0.2734,-17.197909 -0.42159,-5.553968 -1.42596,-9.022345 -3.35784,-11.595606 l -0.66065,-0.879982 17.42514,0.107219 c 16.33592,0.100517 17.6236,0.142442 20.60014,0.670704 8.82558,1.566324 14.59838,4.352137 19.23128,9.280545 4.39717,4.677639 6.84559,11.967559 6.49223,19.329909 -0.18399,3.83338 -0.74884,6.58646 -2.01663,9.82909 -2.6474,6.77121 -8.28183,12.46122 -15.61371,15.76771 -1.39531,0.62925 -2.67872,1.14467 -2.85204,1.14537 -0.73381,0.003 -0.48296,0.63132 1.54315,3.86532 1.1757,1.8766 2.87822,4.60263 3.78338,6.05784 4.30479,6.92068 9.84109,15.20391 12.81896,19.17929 2.22451,2.96967 7.27063,7.94618 9.5785,9.44638 2.17987,1.41699 2.55783,1.58846 5.53175,2.50965 1.90919,0.59139 1.98309,0.64475 1.95042,1.40843 -0.0187,0.43656 -0.0484,1.29976 -0.0661,1.91823 l -0.0322,1.12447 -5.09323,-0.0356 c -2.80128,-0.0196 -6.16479,-0.13902 -7.47448,-0.26538 z m -34.83916,-50.63663 c 8.36378,-1.35644 13.61491,-6.1874 15.82699,-14.5606 0.60817,-2.30203 0.69683,-3.16261 0.70729,-6.86528 0.0106,-3.77043 -0.0652,-4.52264 -0.69331,-6.87917 -1.9829,-7.43885 -5.92788,-11.582736 -12.75181,-13.394734 -1.75133,-0.465041 -3.13276,-0.584625 -8.00365,-0.692839 l -5.88697,-0.130789 v 21.044312 c 0,11.57437 -0.0723,21.23264 -0.1606,21.46283 -0.14243,0.37114 0.32924,0.41839 4.16718,0.41745 2.59321,-6.4e-4 5.3166,-0.16143 6.79488,-0.40118 z"
       id="path1" /></g></svg>